<?xml version="1.0" encoding="UTF-8"?>
<svg xmlns="http://www.w3.org/2000/svg" viewBox="0 0 900 450" width="900" height="450" font-family="Arial, sans-serif">

  <!-- Header -->
  <text x="450" y="28" text-anchor="middle" font-size="16" font-weight="bold" fill="#FFFFFF">Secondary Agent (eu-central-1): S3 Knowledge Access Impact</text>

  <!-- Table header -->
  <rect x="20" y="50" width="200" height="32" rx="4" fill="#37474F"/>
  <rect x="220" y="50" width="170" height="32" rx="4" fill="#C62828"/>
  <rect x="390" y="50" width="170" height="32" rx="4" fill="#2E7D32"/>
  <rect x="560" y="50" width="130" height="32" rx="4" fill="#1565C0"/>
  <rect x="690" y="50" width="190" height="32" rx="4" fill="#4A148C"/>

  <text x="120" y="71" text-anchor="middle" font-size="12" fill="#fff" font-weight="bold">Experiment</text>
  <text x="305" y="71" text-anchor="middle" font-size="12" fill="#fff" font-weight="bold">Correct RCA (no S3)</text>
  <text x="475" y="71" text-anchor="middle" font-size="12" fill="#fff" font-weight="bold">Correct RCA (S3 ✓)</text>
  <text x="625" y="71" text-anchor="middle" font-size="12" fill="#fff" font-weight="bold">Change</text>
  <text x="785" y="71" text-anchor="middle" font-size="12" fill="#fff" font-weight="bold">Duration (S3 ✓)</text>

  <!-- Row 1: Container Kill -->
  <rect x="20" y="86" width="200" height="28" fill="none" stroke="#455A64" stroke-width="0.5"/>
  <rect x="220" y="86" width="170" height="28" fill="none" stroke="#455A64" stroke-width="0.5"/>
  <rect x="390" y="86" width="170" height="28" fill="none" stroke="#455A64" stroke-width="0.5"/>
  <rect x="560" y="86" width="130" height="28" fill="none" stroke="#455A64" stroke-width="0.5"/>
  <rect x="690" y="86" width="190" height="28" fill="none" stroke="#455A64" stroke-width="0.5"/>
  <text x="30" y="104" font-size="11" fill="#E0E0E0">Container Kill</text>
  <text x="305" y="104" text-anchor="middle" font-size="11" fill="#EF9A9A" font-weight="bold">no</text>
  <text x="475" y="104" text-anchor="middle" font-size="11" fill="#A5D6A7" font-weight="bold">yes</text>
  <text x="625" y="104" text-anchor="middle" font-size="11" fill="#81C784">⬆️ improved</text>
  <text x="785" y="104" text-anchor="middle" font-size="11" fill="#BBDEFB">269s (4.5 min)</text>

  <!-- Row 2: CPU Stress -->
  <rect x="20" y="114" width="200" height="28" fill="none" stroke="#455A64" stroke-width="0.5"/>
  <rect x="220" y="114" width="170" height="28" fill="none" stroke="#455A64" stroke-width="0.5"/>
  <rect x="390" y="114" width="170" height="28" fill="none" stroke="#455A64" stroke-width="0.5"/>
  <rect x="560" y="114" width="130" height="28" fill="none" stroke="#455A64" stroke-width="0.5"/>
  <rect x="690" y="114" width="190" height="28" fill="none" stroke="#455A64" stroke-width="0.5"/>
  <text x="30" y="132" font-size="11" fill="#E0E0E0">CPU Stress</text>
  <text x="305" y="132" text-anchor="middle" font-size="11" fill="#A5D6A7" font-weight="bold">yes</text>
  <text x="475" y="132" text-anchor="middle" font-size="11" fill="#A5D6A7" font-weight="bold">yes</text>
  <text x="625" y="132" text-anchor="middle" font-size="11" fill="#B0BEC5">= same</text>
  <text x="785" y="132" text-anchor="middle" font-size="11" fill="#BBDEFB">322s (5.4 min)</text>

  <!-- Row 3: DNS Error -->
  <rect x="20" y="142" width="200" height="28" fill="none" stroke="#455A64" stroke-width="0.5"/>
  <rect x="220" y="142" width="170" height="28" fill="none" stroke="#455A64" stroke-width="0.5"/>
  <rect x="390" y="142" width="170" height="28" fill="none" stroke="#455A64" stroke-width="0.5"/>
  <rect x="560" y="142" width="130" height="28" fill="none" stroke="#455A64" stroke-width="0.5"/>
  <rect x="690" y="142" width="190" height="28" fill="none" stroke="#455A64" stroke-width="0.5"/>
  <text x="30" y="160" font-size="11" fill="#E0E0E0">DNS Error</text>
  <text x="305" y="160" text-anchor="middle" font-size="11" fill="#EF9A9A" font-weight="bold">no</text>
  <text x="475" y="160" text-anchor="middle" font-size="11" fill="#A5D6A7" font-weight="bold">yes</text>
  <text x="625" y="160" text-anchor="middle" font-size="11" fill="#81C784">⬆️ improved</text>
  <text x="785" y="160" text-anchor="middle" font-size="11" fill="#BBDEFB">222s (3.7 min)</text>

  <!-- Row 4: HTTP Abort -->
  <rect x="20" y="170" width="200" height="28" fill="none" stroke="#455A64" stroke-width="0.5"/>
  <rect x="220" y="170" width="170" height="28" fill="none" stroke="#455A64" stroke-width="0.5"/>
  <rect x="390" y="170" width="170" height="28" fill="none" stroke="#455A64" stroke-width="0.5"/>
  <rect x="560" y="170" width="130" height="28" fill="none" stroke="#455A64" stroke-width="0.5"/>
  <rect x="690" y="170" width="190" height="28" fill="none" stroke="#455A64" stroke-width="0.5"/>
  <text x="30" y="188" font-size="11" fill="#E0E0E0">HTTP Abort</text>
  <text x="305" y="188" text-anchor="middle" font-size="11" fill="#FFD54F" font-weight="bold">partially</text>
  <text x="475" y="188" text-anchor="middle" font-size="11" fill="#A5D6A7" font-weight="bold">yes</text>
  <text x="625" y="188" text-anchor="middle" font-size="11" fill="#81C784">⬆️ improved</text>
  <text x="785" y="188" text-anchor="middle" font-size="11" fill="#BBDEFB">238s (4.0 min)</text>

  <!-- Row 5: Packet Loss -->
  <rect x="20" y="198" width="200" height="28" fill="none" stroke="#455A64" stroke-width="0.5"/>
  <rect x="220" y="198" width="170" height="28" fill="none" stroke="#455A64" stroke-width="0.5"/>
  <rect x="390" y="198" width="170" height="28" fill="none" stroke="#455A64" stroke-width="0.5"/>
  <rect x="560" y="198" width="130" height="28" fill="none" stroke="#455A64" stroke-width="0.5"/>
  <rect x="690" y="198" width="190" height="28" fill="none" stroke="#455A64" stroke-width="0.5"/>
  <text x="30" y="216" font-size="11" fill="#E0E0E0">Packet Loss</text>
  <text x="305" y="216" text-anchor="middle" font-size="11" fill="#A5D6A7" font-weight="bold">yes</text>
  <text x="475" y="216" text-anchor="middle" font-size="11" fill="#A5D6A7" font-weight="bold">yes</text>
  <text x="625" y="216" text-anchor="middle" font-size="11" fill="#B0BEC5">= same</text>
  <text x="785" y="216" text-anchor="middle" font-size="11" fill="#BBDEFB">165s (2.8 min)</text>

  <!-- Row 6: Network Partition -->
  <rect x="20" y="226" width="200" height="28" fill="none" stroke="#455A64" stroke-width="0.5"/>
  <rect x="220" y="226" width="170" height="28" fill="none" stroke="#455A64" stroke-width="0.5"/>
  <rect x="390" y="226" width="170" height="28" fill="none" stroke="#455A64" stroke-width="0.5"/>
  <rect x="560" y="226" width="130" height="28" fill="none" stroke="#455A64" stroke-width="0.5"/>
  <rect x="690" y="226" width="190" height="28" fill="none" stroke="#455A64" stroke-width="0.5"/>
  <text x="30" y="244" font-size="11" fill="#E0E0E0">Network Partition</text>
  <text x="305" y="244" text-anchor="middle" font-size="11" fill="#A5D6A7" font-weight="bold">yes</text>
  <text x="475" y="244" text-anchor="middle" font-size="11" fill="#A5D6A7" font-weight="bold">yes</text>
  <text x="625" y="244" text-anchor="middle" font-size="11" fill="#B0BEC5">= same</text>
  <text x="785" y="244" text-anchor="middle" font-size="11" fill="#BBDEFB">414s (6.9 min)</text>

  <!-- Row 7: Pod Kill -->
  <rect x="20" y="254" width="200" height="28" fill="none" stroke="#455A64" stroke-width="0.5"/>
  <rect x="220" y="254" width="170" height="28" fill="none" stroke="#455A64" stroke-width="0.5"/>
  <rect x="390" y="254" width="170" height="28" fill="none" stroke="#455A64" stroke-width="0.5"/>
  <rect x="560" y="254" width="130" height="28" fill="none" stroke="#455A64" stroke-width="0.5"/>
  <rect x="690" y="254" width="190" height="28" fill="none" stroke="#455A64" stroke-width="0.5"/>
  <text x="30" y="272" font-size="11" fill="#E0E0E0">Pod Kill</text>
  <text x="305" y="272" text-anchor="middle" font-size="11" fill="#A5D6A7" font-weight="bold">yes</text>
  <text x="475" y="272" text-anchor="middle" font-size="11" fill="#A5D6A7" font-weight="bold">yes</text>
  <text x="625" y="272" text-anchor="middle" font-size="11" fill="#B0BEC5">= same</text>
  <text x="785" y="272" text-anchor="middle" font-size="11" fill="#BBDEFB">317s (5.3 min)</text>

  <!-- Separator -->
  <rect x="20" y="286" width="860" height="2" fill="#455A64"/>
  <text x="30" y="304" font-size="10" fill="#90CAF9" font-style="italic">New coverage (no prior baseline):</text>

  <!-- Row 8: IO Delay -->
  <rect x="20" y="312" width="200" height="28" fill="none" stroke="#455A64" stroke-width="0.5"/>
  <rect x="220" y="312" width="170" height="28" fill="none" stroke="#455A64" stroke-width="0.5"/>
  <rect x="390" y="312" width="170" height="28" fill="none" stroke="#455A64" stroke-width="0.5"/>
  <rect x="560" y="312" width="130" height="28" fill="none" stroke="#455A64" stroke-width="0.5"/>
  <rect x="690" y="312" width="190" height="28" fill="none" stroke="#455A64" stroke-width="0.5"/>
  <text x="30" y="330" font-size="11" fill="#E0E0E0">IO Delay</text>
  <text x="305" y="330" text-anchor="middle" font-size="11" fill="#616161">—</text>
  <text x="475" y="330" text-anchor="middle" font-size="11" fill="#EF9A9A" font-weight="bold">no</text>
  <text x="625" y="330" text-anchor="middle" font-size="11" fill="#90CAF9">NEW</text>
  <text x="785" y="330" text-anchor="middle" font-size="11" fill="#BBDEFB">286s (4.8 min)</text>

  <!-- Row 9: Memory Stress -->
  <rect x="20" y="340" width="200" height="28" fill="none" stroke="#455A64" stroke-width="0.5"/>
  <rect x="220" y="340" width="170" height="28" fill="none" stroke="#455A64" stroke-width="0.5"/>
  <rect x="390" y="340" width="170" height="28" fill="none" stroke="#455A64" stroke-width="0.5"/>
  <rect x="560" y="340" width="130" height="28" fill="none" stroke="#455A64" stroke-width="0.5"/>
  <rect x="690" y="340" width="190" height="28" fill="none" stroke="#455A64" stroke-width="0.5"/>
  <text x="30" y="358" font-size="11" fill="#E0E0E0">Memory Stress</text>
  <text x="305" y="358" text-anchor="middle" font-size="11" fill="#616161">—</text>
  <text x="475" y="358" text-anchor="middle" font-size="11" fill="#A5D6A7" font-weight="bold">yes</text>
  <text x="625" y="358" text-anchor="middle" font-size="11" fill="#90CAF9">NEW</text>
  <text x="785" y="358" text-anchor="middle" font-size="11" fill="#BBDEFB">307s (5.1 min)</text>

  <!-- Row 10: Network Delay -->
  <rect x="20" y="368" width="200" height="28" fill="none" stroke="#455A64" stroke-width="0.5"/>
  <rect x="220" y="368" width="170" height="28" fill="none" stroke="#455A64" stroke-width="0.5"/>
  <rect x="390" y="368" width="170" height="28" fill="none" stroke="#455A64" stroke-width="0.5"/>
  <rect x="560" y="368" width="130" height="28" fill="none" stroke="#455A64" stroke-width="0.5"/>
  <rect x="690" y="368" width="190" height="28" fill="none" stroke="#455A64" stroke-width="0.5"/>
  <text x="30" y="386" font-size="11" fill="#E0E0E0">Network Delay</text>
  <text x="305" y="386" text-anchor="middle" font-size="11" fill="#616161">—</text>
  <text x="475" y="386" text-anchor="middle" font-size="11" fill="#A5D6A7" font-weight="bold">yes</text>
  <text x="625" y="386" text-anchor="middle" font-size="11" fill="#90CAF9">NEW</text>
  <text x="785" y="386" text-anchor="middle" font-size="11" fill="#BBDEFB">238s (4.0 min)</text>

  <!-- Duration summary row -->
  <rect x="20" y="405" width="860" height="32" rx="6" fill="none" stroke="#90CAF9" stroke-width="1.5"/>
  <text x="40" y="426" font-size="12" fill="#B0BEC5">Avg investigation duration:</text>
  <text x="305" y="426" text-anchor="middle" font-size="12" fill="#BBDEFB" font-weight="bold">4.3 min (no S3)</text>
  <text x="475" y="426" text-anchor="middle" font-size="12" fill="#BBDEFB" font-weight="bold">5.3 min (with S3)</text>
  <text x="700" y="426" font-size="12" fill="#90CAF9" font-style="italic">+1 min buys +33% accuracy</text>

</svg>